<svg xmlns="http://www.w3.org/2000/svg" xmlns:xlink="http://www.w3.org/1999/xlink" width="500" zoomAndPan="magnify" viewBox="0 0 375 374.999991" height="500" preserveAspectRatio="xMidYMid meet" version="1.0"><defs><g/></defs><g fill="#206bc4" fill-opacity="1"><g transform="translate(11.323118, 210.069115)"><g><path d="M 48.96875 -37.4375 C 52.96875 -33.082031 54.96875 -27.738281 54.96875 -21.40625 C 54.96875 -15.070312 52.96875 -9.710938 48.96875 -5.328125 C 44.976562 -0.941406 39.898438 1.25 33.734375 1.25 C 28.066406 1.25 23.398438 -0.523438 19.734375 -4.078125 L 19.734375 21.65625 L 5 21.65625 L 5 -42.734375 L 19.578125 -42.734375 L 19.578125 -37.90625 L 19.734375 -37.90625 C 23.398438 -41.957031 28.066406 -43.984375 33.734375 -43.984375 C 39.898438 -43.984375 44.976562 -41.800781 48.96875 -37.4375 Z M 36.4375 -14.15625 C 38.351562 -16.050781 39.3125 -18.46875 39.3125 -21.40625 C 39.3125 -24.351562 38.394531 -26.753906 36.5625 -28.609375 C 34.726562 -30.472656 32.316406 -31.40625 29.328125 -31.40625 C 26.429688 -31.40625 24.050781 -30.457031 22.1875 -28.5625 C 20.332031 -26.675781 19.40625 -24.289062 19.40625 -21.40625 C 19.40625 -18.46875 20.363281 -16.050781 22.28125 -14.15625 C 24.195312 -12.269531 26.546875 -11.328125 29.328125 -11.328125 C 32.148438 -11.328125 34.519531 -12.269531 36.4375 -14.15625 Z M 36.4375 -14.15625 "/></g></g></g><g fill="#206bc4" fill-opacity="1"><g transform="translate(60.373292, 210.069115)"><g><path d="M 5 0 L 5 -42.734375 L 19.734375 -42.734375 L 19.734375 -36.5625 L 19.90625 -36.5625 C 20.019531 -36.789062 20.203125 -37.070312 20.453125 -37.40625 C 20.703125 -37.738281 21.242188 -38.320312 22.078125 -39.15625 C 22.910156 -39.988281 23.796875 -40.734375 24.734375 -41.390625 C 25.679688 -42.054688 26.90625 -42.65625 28.40625 -43.1875 C 29.90625 -43.71875 31.429688 -43.984375 32.984375 -43.984375 C 34.597656 -43.984375 36.179688 -43.757812 37.734375 -43.3125 C 39.285156 -42.863281 40.425781 -42.421875 41.15625 -41.984375 L 42.3125 -41.3125 L 36.15625 -28.828125 C 34.320312 -30.378906 31.765625 -31.15625 28.484375 -31.15625 C 26.710938 -31.15625 25.1875 -30.765625 23.90625 -29.984375 C 22.625 -29.210938 21.71875 -28.269531 21.1875 -27.15625 C 20.664062 -26.039062 20.289062 -25.09375 20.0625 -24.3125 C 19.84375 -23.539062 19.734375 -22.929688 19.734375 -22.484375 L 19.734375 0 Z M 5 0 "/></g></g></g><g fill="#206bc4" fill-opacity="1"><g transform="translate(94.016496, 210.069115)"><g><path d="M 48.234375 -19.328125 L 17.25 -19.328125 C 17.25 -16.328125 18.21875 -14.101562 20.15625 -12.65625 C 22.101562 -11.21875 24.210938 -10.5 26.484375 -10.5 C 28.867188 -10.5 30.753906 -10.816406 32.140625 -11.453125 C 33.535156 -12.085938 35.125 -13.351562 36.90625 -15.25 L 47.5625 -9.90625 C 43.125 -2.46875 35.738281 1.25 25.40625 1.25 C 18.96875 1.25 13.441406 -0.957031 8.828125 -5.375 C 4.222656 -9.789062 1.921875 -15.109375 1.921875 -21.328125 C 1.921875 -27.546875 4.222656 -32.875 8.828125 -37.3125 C 13.441406 -41.757812 18.96875 -43.984375 25.40625 -43.984375 C 32.175781 -43.984375 37.6875 -42.023438 41.9375 -38.109375 C 46.1875 -34.191406 48.3125 -28.597656 48.3125 -21.328125 C 48.3125 -20.328125 48.285156 -19.660156 48.234375 -19.328125 Z M 17.65625 -27.484375 L 33.90625 -27.484375 C 33.570312 -29.703125 32.695312 -31.410156 31.28125 -32.609375 C 29.863281 -33.804688 28.046875 -34.40625 25.828125 -34.40625 C 23.378906 -34.40625 21.429688 -33.765625 19.984375 -32.484375 C 18.546875 -31.203125 17.769531 -29.535156 17.65625 -27.484375 Z M 17.65625 -27.484375 "/></g></g></g><g fill="#206bc4" fill-opacity="1"><g transform="translate(136.404192, 210.069115)"><g><path d="M 23.578125 -43.984375 C 26.015625 -43.984375 28.425781 -43.703125 30.8125 -43.140625 C 33.207031 -42.585938 34.988281 -42.035156 36.15625 -41.484375 L 37.90625 -40.65625 L 33.0625 -30.984375 C 29.738281 -32.765625 26.578125 -33.65625 23.578125 -33.65625 C 21.910156 -33.65625 20.726562 -33.472656 20.03125 -33.109375 C 19.332031 -32.742188 18.984375 -32.0625 18.984375 -31.0625 C 18.984375 -30.84375 19.007812 -30.617188 19.0625 -30.390625 C 19.125 -30.171875 19.238281 -29.960938 19.40625 -29.765625 C 19.570312 -29.578125 19.722656 -29.414062 19.859375 -29.28125 C 20.003906 -29.144531 20.242188 -28.992188 20.578125 -28.828125 C 20.910156 -28.660156 21.171875 -28.535156 21.359375 -28.453125 C 21.554688 -28.367188 21.875 -28.242188 22.3125 -28.078125 C 22.757812 -27.910156 23.09375 -27.785156 23.3125 -27.703125 C 23.539062 -27.617188 23.914062 -27.492188 24.4375 -27.328125 C 24.96875 -27.160156 25.375 -27.046875 25.65625 -26.984375 C 27.375 -26.484375 28.867188 -25.925781 30.140625 -25.3125 C 31.421875 -24.707031 32.769531 -23.875 34.1875 -22.8125 C 35.601562 -21.757812 36.703125 -20.425781 37.484375 -18.8125 C 38.265625 -17.207031 38.65625 -15.378906 38.65625 -13.328125 C 38.65625 -3.609375 31.90625 1.25 18.40625 1.25 C 15.351562 1.25 12.453125 0.78125 9.703125 -0.15625 C 6.953125 -1.101562 4.96875 -2.050781 3.75 -3 L 1.921875 -4.5 L 7.90625 -14.578125 C 8.351562 -14.191406 8.9375 -13.734375 9.65625 -13.203125 C 10.382812 -12.671875 11.691406 -11.945312 13.578125 -11.03125 C 15.460938 -10.113281 17.097656 -9.65625 18.484375 -9.65625 C 21.546875 -9.65625 23.078125 -10.6875 23.078125 -12.75 C 23.078125 -13.6875 22.6875 -14.421875 21.90625 -14.953125 C 21.125 -15.484375 19.800781 -16.082031 17.9375 -16.75 C 16.082031 -17.414062 14.628906 -18.023438 13.578125 -18.578125 C 10.910156 -19.960938 8.800781 -21.53125 7.25 -23.28125 C 5.695312 -25.03125 4.921875 -27.347656 4.921875 -30.234375 C 4.921875 -34.566406 6.597656 -37.941406 9.953125 -40.359375 C 13.316406 -42.773438 17.859375 -43.984375 23.578125 -43.984375 Z M 23.578125 -43.984375 "/></g></g></g><g fill="#206bc4" fill-opacity="1"><g transform="translate(169.547714, 210.069115)"><g><path d="M 48.234375 -19.328125 L 17.25 -19.328125 C 17.25 -16.328125 18.21875 -14.101562 20.15625 -12.65625 C 22.101562 -11.21875 24.210938 -10.5 26.484375 -10.5 C 28.867188 -10.5 30.753906 -10.816406 32.140625 -11.453125 C 33.535156 -12.085938 35.125 -13.351562 36.90625 -15.25 L 47.5625 -9.90625 C 43.125 -2.46875 35.738281 1.25 25.40625 1.25 C 18.96875 1.25 13.441406 -0.957031 8.828125 -5.375 C 4.222656 -9.789062 1.921875 -15.109375 1.921875 -21.328125 C 1.921875 -27.546875 4.222656 -32.875 8.828125 -37.3125 C 13.441406 -41.757812 18.96875 -43.984375 25.40625 -43.984375 C 32.175781 -43.984375 37.6875 -42.023438 41.9375 -38.109375 C 46.1875 -34.191406 48.3125 -28.597656 48.3125 -21.328125 C 48.3125 -20.328125 48.285156 -19.660156 48.234375 -19.328125 Z M 17.65625 -27.484375 L 33.90625 -27.484375 C 33.570312 -29.703125 32.695312 -31.410156 31.28125 -32.609375 C 29.863281 -33.804688 28.046875 -34.40625 25.828125 -34.40625 C 23.378906 -34.40625 21.429688 -33.765625 19.984375 -32.484375 C 18.546875 -31.203125 17.769531 -29.535156 17.65625 -27.484375 Z M 17.65625 -27.484375 "/></g></g></g><g fill="#206bc4" fill-opacity="1"><g transform="translate(211.935419, 210.069115)"><g><path d="M 5 0 L 5 -42.734375 L 19.734375 -42.734375 L 19.734375 -38.234375 L 19.90625 -38.234375 C 23.738281 -42.066406 27.820312 -43.984375 32.15625 -43.984375 C 34.257812 -43.984375 36.351562 -43.703125 38.4375 -43.140625 C 40.519531 -42.585938 42.519531 -41.726562 44.4375 -40.5625 C 46.351562 -39.394531 47.90625 -37.742188 49.09375 -35.609375 C 50.289062 -33.472656 50.890625 -30.988281 50.890625 -28.15625 L 50.890625 0 L 36.15625 0 L 36.15625 -24.15625 C 36.15625 -26.375 35.445312 -28.316406 34.03125 -29.984375 C 32.613281 -31.648438 30.765625 -32.484375 28.484375 -32.484375 C 26.265625 -32.484375 24.25 -31.625 22.4375 -29.90625 C 20.632812 -28.1875 19.734375 -26.269531 19.734375 -24.15625 L 19.734375 0 Z M 5 0 "/></g></g></g><g fill="#206bc4" fill-opacity="1"><g transform="translate(259.15342, 210.069115)"><g><path d="M 27.734375 -31.90625 C 24.960938 -31.90625 22.578125 -30.875 20.578125 -28.8125 C 18.578125 -26.757812 17.578125 -24.289062 17.578125 -21.40625 C 17.578125 -18.46875 18.578125 -15.96875 20.578125 -13.90625 C 22.578125 -11.851562 24.960938 -10.828125 27.734375 -10.828125 C 29.066406 -10.828125 30.328125 -10.992188 31.515625 -11.328125 C 32.710938 -11.660156 33.59375 -11.992188 34.15625 -12.328125 L 34.90625 -12.828125 L 39.90625 -2.578125 C 39.507812 -2.304688 38.960938 -1.960938 38.265625 -1.546875 C 37.578125 -1.128906 35.992188 -0.5625 33.515625 0.15625 C 31.046875 0.882812 28.398438 1.25 25.578125 1.25 C 19.296875 1.25 13.78125 -0.957031 9.03125 -5.375 C 4.289062 -9.789062 1.921875 -15.078125 1.921875 -21.234375 C 1.921875 -27.453125 4.289062 -32.796875 9.03125 -37.265625 C 13.78125 -41.742188 19.296875 -43.984375 25.578125 -43.984375 C 28.398438 -43.984375 31.003906 -43.648438 33.390625 -42.984375 C 35.785156 -42.316406 37.484375 -41.648438 38.484375 -40.984375 L 39.90625 -39.984375 L 34.90625 -29.90625 C 33.070312 -31.238281 30.679688 -31.90625 27.734375 -31.90625 Z M 27.734375 -31.90625 "/></g></g></g><g fill="#206bc4" fill-opacity="1"><g transform="translate(292.213667, 210.069115)"><g><path d="M 48.234375 -19.328125 L 17.25 -19.328125 C 17.25 -16.328125 18.21875 -14.101562 20.15625 -12.65625 C 22.101562 -11.21875 24.210938 -10.5 26.484375 -10.5 C 28.867188 -10.5 30.753906 -10.816406 32.140625 -11.453125 C 33.535156 -12.085938 35.125 -13.351562 36.90625 -15.25 L 47.5625 -9.90625 C 43.125 -2.46875 35.738281 1.25 25.40625 1.25 C 18.96875 1.25 13.441406 -0.957031 8.828125 -5.375 C 4.222656 -9.789062 1.921875 -15.109375 1.921875 -21.328125 C 1.921875 -27.546875 4.222656 -32.875 8.828125 -37.3125 C 13.441406 -41.757812 18.96875 -43.984375 25.40625 -43.984375 C 32.175781 -43.984375 37.6875 -42.023438 41.9375 -38.109375 C 46.1875 -34.191406 48.3125 -28.597656 48.3125 -21.328125 C 48.3125 -20.328125 48.285156 -19.660156 48.234375 -19.328125 Z M 17.65625 -27.484375 L 33.90625 -27.484375 C 33.570312 -29.703125 32.695312 -31.410156 31.28125 -32.609375 C 29.863281 -33.804688 28.046875 -34.40625 25.828125 -34.40625 C 23.378906 -34.40625 21.429688 -33.765625 19.984375 -32.484375 C 18.546875 -31.203125 17.769531 -29.535156 17.65625 -27.484375 Z M 17.65625 -27.484375 "/></g></g></g><g fill="#206bc4" fill-opacity="1"><g transform="translate(334.601372, 210.069115)"><g><path d="M 14.5 -17.828125 C 17.15625 -17.828125 19.414062 -16.894531 21.28125 -15.03125 C 23.144531 -13.175781 24.078125 -10.914062 24.078125 -8.25 C 24.078125 -5.632812 23.144531 -3.394531 21.28125 -1.53125 C 19.414062 0.320312 17.15625 1.25 14.5 1.25 C 11.882812 1.25 9.644531 0.320312 7.78125 -1.53125 C 5.925781 -3.394531 5 -5.632812 5 -8.25 C 5 -10.914062 5.925781 -13.175781 7.78125 -15.03125 C 9.644531 -16.894531 11.882812 -17.828125 14.5 -17.828125 Z M 14.5 -17.828125 "/></g></g></g></svg>